<svg width="24" height="25" viewBox="0 0 24 25" fill="none" xmlns="http://www.w3.org/2000/svg">
<path d="M15.1518 19.2935C14.5564 20.7176 13.4241 21.8499 12 22.4453C10.576 21.8499 9.44365 20.7176 8.84825 19.2935H10.8822C11.1756 19.7336 11.5545 20.1143 12 20.4122C12.4455 20.1152 12.8244 19.7336 13.1187 19.2935H15.1518ZM17.4 14.618L19.2 16.6592V18.3935H4.80005V16.6592L6.60005 14.618V9.39353C6.60005 6.25883 8.85365 3.59123 12 2.60303C15.1464 3.59123 17.4 6.25883 17.4 9.39353V14.618ZM16.743 16.5935L15.6 15.2975V9.39353C15.6 7.30733 14.187 5.40653 12 4.51553C9.81305 5.40653 8.40005 7.30643 8.40005 9.39353V15.2975L7.25705 16.5935H16.743ZM12 11.1935C11.5227 11.1935 11.0648 11.0039 10.7273 10.6663C10.3897 10.3288 10.2 9.87092 10.2 9.39353C10.2 8.91614 10.3897 8.4583 10.7273 8.12074C11.0648 7.78317 11.5227 7.59353 12 7.59353C12.4774 7.59353 12.9353 7.78317 13.2728 8.12074C13.6104 8.4583 13.8 8.91614 13.8 9.39353C13.8 9.87092 13.6104 10.3288 13.2728 10.6663C12.9353 11.0039 12.4774 11.1935 12 11.1935Z" fill="white"/>
</svg>
