<svg width="24" height="25" viewBox="0 0 24 25" fill="none" xmlns="http://www.w3.org/2000/svg">
<path d="M12.9 18.3939H18.3V10.2741L12 5.3745L5.70002 10.2741V18.3939H11.1V12.9939H12.9V18.3939ZM20.1 19.2939C20.1 19.5326 20.0052 19.7615 19.8364 19.9303C19.6676 20.0991 19.4387 20.1939 19.2 20.1939H4.80002C4.56133 20.1939 4.33241 20.0991 4.16363 19.9303C3.99485 19.7615 3.90002 19.5326 3.90002 19.2939V9.8349C3.89993 9.69775 3.93118 9.56239 3.99139 9.43917C4.0516 9.31594 4.13917 9.20811 4.24742 9.1239L11.4474 3.5241C11.6054 3.4012 11.7999 3.33447 12 3.33447C12.2002 3.33447 12.3946 3.4012 12.5526 3.5241L19.7526 9.1239C19.8609 9.20811 19.9485 9.31594 20.0087 9.43917C20.0689 9.56239 20.1001 9.69775 20.1 9.8349V19.2939Z" fill="white"/>
</svg>
