<svg width="24" height="25" viewBox="0 0 24 25" fill="none" xmlns="http://www.w3.org/2000/svg">
<path d="M19.2 21.0938H17.4V19.2938C17.4 18.5778 17.1156 17.891 16.6092 17.3847C16.1029 16.8783 15.4161 16.5938 14.7 16.5938H9.30005C8.58396 16.5938 7.89721 16.8783 7.39086 17.3847C6.88451 17.891 6.60005 18.5778 6.60005 19.2938V21.0938H4.80005V19.2938C4.80005 18.1004 5.27415 16.9558 6.11807 16.1119C6.96198 15.268 8.10657 14.7938 9.30005 14.7938H14.7C15.8935 14.7938 17.0381 15.268 17.882 16.1119C18.7259 16.9558 19.2 18.1004 19.2 19.2938V21.0938ZM12 12.9938C11.2909 12.9938 10.5887 12.8542 9.93356 12.5828C9.2784 12.3114 8.68311 11.9137 8.18167 11.4122C7.68024 10.9108 7.28247 10.3155 7.0111 9.66034C6.73972 9.00518 6.60005 8.30299 6.60005 7.59385C6.60005 6.88471 6.73972 6.18252 7.0111 5.52736C7.28247 4.8722 7.68024 4.27691 8.18167 3.77547C8.68311 3.27403 9.2784 2.87627 9.93356 2.6049C10.5887 2.33352 11.2909 2.19385 12 2.19385C13.4322 2.19385 14.8057 2.76277 15.8184 3.77547C16.8311 4.78817 17.4 6.16168 17.4 7.59385C17.4 9.02602 16.8311 10.3995 15.8184 11.4122C14.8057 12.4249 13.4322 12.9938 12 12.9938ZM12 11.1938C12.9548 11.1938 13.8705 10.8146 14.5456 10.1394C15.2208 9.4643 15.6 8.54863 15.6 7.59385C15.6 6.63907 15.2208 5.72339 14.5456 5.04826C13.8705 4.37313 12.9548 3.99385 12 3.99385C11.0453 3.99385 10.1296 4.37313 9.45446 5.04826C8.77933 5.72339 8.40005 6.63907 8.40005 7.59385C8.40005 8.54863 8.77933 9.4643 9.45446 10.1394C10.1296 10.8146 11.0453 11.1938 12 11.1938Z" fill="white"/>
</svg>
