<svg width="24" height="25" viewBox="0 0 24 25" fill="none" xmlns="http://www.w3.org/2000/svg">
<path d="M19.2 3.09375C19.9161 3.09375 20.6028 3.37821 21.1092 3.88456C21.6155 4.39091 21.9 5.07767 21.9 5.79375V7.59375H20.1V18.3937C20.1 19.1098 19.8155 19.7966 19.3092 20.3029C18.8028 20.8093 18.1161 21.0938 17.4 21.0938H4.79998C4.08389 21.0938 3.39714 20.8093 2.89079 20.3029C2.38444 19.7966 2.09998 19.1098 2.09998 18.3937V16.5938H16.5V18.3937C16.5 18.6142 16.5809 18.827 16.7274 18.9917C16.8739 19.1564 17.0757 19.2617 17.2947 19.2874L17.4 19.2937C17.6204 19.2937 17.8332 19.2128 17.9979 19.0663C18.1626 18.9198 18.2679 18.718 18.2937 18.4991L18.3 18.3937V4.89375H6.59998C6.37954 4.89378 6.16677 4.97471 6.00204 5.12119C5.83731 5.26768 5.73207 5.46952 5.70628 5.68845L5.69998 5.79375V14.7937H3.89998V5.79375C3.89998 5.07767 4.18444 4.39091 4.69079 3.88456C5.19714 3.37821 5.88389 3.09375 6.59998 3.09375H19.2Z" fill="white"/>
</svg>
